<?xml version="1.0" standalone="no"?>
<!DOCTYPE svg PUBLIC "-//W3C//DTD SVG 20010904//EN"
 "http://www.w3.org/TR/2001/REC-SVG-20010904/DTD/svg10.dtd">
<svg version="1.0" xmlns="http://www.w3.org/2000/svg"
 width="700.000000pt" height="700.000000pt" viewBox="0 0 700.000000 700.000000"
 preserveAspectRatio="xMidYMid meet">
<metadata>
Created by potrace 1.11, written by Peter Selinger 2001-2013
</metadata>
<g transform="translate(0.000000,700.000000) scale(0.100000,-0.100000)"
fill="#000000" stroke="none">
<path d="M5788 6545 c-2 -2 -39 -6 -83 -10 -44 -3 -98 -8 -120 -10 -44 -5
-124 -12 -225 -20 -36 -3 -81 -7 -100 -9 -19 -3 -73 -8 -120 -12 -47 -4 -96
-8 -110 -9 -22 -2 -101 -9 -230 -20 -25 -2 -75 -6 -112 -10 -37 -3 -85 -7
-105 -9 -21 -3 -74 -7 -118 -11 -44 -3 -93 -8 -110 -10 -16 -2 -66 -7 -110
-11 -44 -3 -98 -7 -120 -9 -22 -2 -71 -6 -110 -10 -38 -3 -90 -8 -115 -11 -46
-4 -101 -9 -225 -19 -38 -3 -88 -7 -110 -9 -22 -3 -76 -8 -120 -11 -44 -3 -96
-8 -115 -11 -19 -3 -62 -7 -95 -9 -33 -3 -85 -7 -115 -10 -30 -3 -84 -7 -120
-10 -36 -3 -81 -7 -100 -10 -19 -2 -73 -7 -120 -10 -47 -3 -101 -8 -120 -10
-36 -5 -89 -9 -220 -20 -41 -4 -88 -8 -105 -9 -16 -2 -68 -6 -115 -10 -47 -4
-101 -9 -120 -11 -48 -6 -143 -14 -215 -20 -85 -7 -173 -15 -225 -20 -25 -3
-79 -7 -120 -10 -41 -3 -95 -8 -120 -10 -42 -5 -68 -7 -197 -19 -27 -3 -87 -8
-134 -11 -47 -4 -95 -8 -105 -10 -10 -2 -31 -4 -46 -4 -25 -1 -27 -4 -23 -33
2 -18 7 -64 10 -103 3 -38 8 -90 10 -115 11 -113 18 -189 30 -335 3 -38 7 -86
10 -105 2 -19 7 -69 10 -110 3 -41 8 -95 10 -120 28 -299 28 -282 2 -286 -7 0
-46 -4 -87 -8 -88 -9 -121 -16 -116 -25 4 -6 10 -52 21 -173 8 -75 16 -151 20
-178 2 -14 7 -61 11 -105 3 -44 8 -87 10 -95 1 -8 3 -32 3 -53 l1 -39 73 7
c39 4 89 8 110 10 29 3 37 0 38 -13 0 -10 2 -25 4 -34 2 -9 6 -56 9 -103 4
-47 8 -100 11 -118 2 -18 7 -68 10 -112 3 -44 8 -98 10 -120 3 -22 7 -69 10
-105 3 -36 7 -87 10 -115 3 -27 7 -79 11 -115 3 -36 7 -83 9 -105 8 -79 19
-210 19 -228 0 -17 7 -18 101 -12 55 4 108 9 117 10 9 2 57 7 105 10 48 4 99
8 113 10 20 3 95 10 220 20 121 10 202 17 231 21 20 2 68 6 105 9 38 3 89 8
114 10 25 3 77 7 115 10 39 3 91 8 118 10 174 18 285 28 447 40 52 4 102 9
110 10 8 2 53 6 100 9 88 7 139 12 225 21 28 2 79 7 115 10 149 12 187 16 230
20 25 2 74 6 110 10 67 6 142 13 220 20 47 5 153 14 230 20 57 4 173 14 225
20 64 7 156 15 215 19 126 10 207 17 235 21 17 2 66 7 110 10 44 4 96 8 115
10 19 2 73 7 120 10 47 3 92 8 100 10 8 2 60 7 115 11 55 3 108 8 118 10 9 1
52 6 95 9 42 3 95 8 117 10 22 2 76 6 120 10 139 11 138 10 131 59 -3 22 -8
73 -11 111 -3 39 -7 90 -10 115 -7 69 -17 168 -20 214 -4 59 -15 184 -20 231
-2 22 -7 72 -10 110 -3 39 -8 88 -10 110 -2 22 -7 72 -10 110 -4 39 -8 89 -10
112 l-4 41 77 8 c42 4 82 8 87 9 12 0 14 54 4 138 -10 87 -21 186 -24 227 -2
19 -6 67 -10 105 -4 39 -9 84 -11 100 -1 17 -3 43 -3 58 l-1 29 -80 -6 c-45
-3 -85 -8 -90 -11 -6 -4 -11 10 -11 29 -1 20 -2 39 -3 44 -1 4 -6 54 -10 111
-4 58 -9 112 -11 122 -2 9 -6 54 -10 100 -3 46 -8 98 -9 114 -6 54 -16 169
-22 235 -2 36 -7 85 -9 110 -6 55 -12 122 -20 217 -10 112 -8 107 -43 109 -17
1 -33 0 -34 -1z m-853 -1146 c148 -32 258 -104 329 -214 130 -202 105 -447
-63 -616 -147 -146 -355 -188 -543 -109 -370 157 -411 657 -71 872 100 64 241
91 348 67z m-2622 -233 c100 -22 236 -120 295 -214 72 -112 99 -262 68 -377
-61 -230 -269 -390 -494 -380 -94 4 -127 12 -207 50 -350 168 -378 648 -50
856 42 27 137 64 185 73 31 5 165 0 203 -8z"/>
<path d="M1895 3017 c-2 -12 -7 -80 -10 -152 -7 -155 -12 -263 -19 -405 -3
-58 -8 -157 -11 -220 -3 -63 -8 -158 -11 -210 -3 -52 -7 -129 -9 -170 -2 -41
-6 -135 -10 -208 l-7 -132 29 1 c28 1 192 -6 348 -16 74 -4 194 -10 405 -20
86 -4 220 -10 405 -20 55 -3 147 -7 205 -10 247 -12 310 -15 405 -20 218 -11
304 -16 400 -20 55 -3 150 -7 210 -11 61 -3 144 -7 185 -9 242 -11 368 -17
397 -20 19 -1 33 3 34 9 0 6 2 43 4 81 4 84 15 301 20 405 2 41 7 129 10 195
3 66 8 161 10 210 11 208 14 277 20 415 4 80 8 156 8 169 2 29 9 27 -180 36
-82 3 -186 8 -233 10 -207 10 -321 16 -395 20 -44 3 -132 7 -195 10 -128 6
-283 13 -405 20 -44 2 -138 7 -210 10 -71 3 -159 8 -195 10 -57 3 -207 11
-405 20 -178 8 -347 17 -400 20 -33 2 -125 7 -205 10 -80 4 -155 8 -167 10
-17 3 -24 -2 -28 -18z"/>
<path d="M2195 1078 c2 -139 5 -337 7 -440 l3 -187 35 4 c19 2 73 6 120 10 47
4 103 8 125 11 22 2 65 6 95 9 30 2 84 7 120 10 36 3 85 7 110 9 143 14 207
19 223 18 18 -1 18 16 13 380 -2 209 -6 382 -8 383 -6 7 -222 19 -689 40
l-157 7 3 -254z"/>
<path d="M3730 1249 c0 -8 121 -498 151 -612 l10 -37 67 5 c37 3 83 7 102 10
19 2 73 7 120 11 47 3 101 7 120 9 19 2 73 6 120 10 47 4 92 9 100 10 9 2 60
6 115 10 55 4 102 9 104 11 2 2 -13 70 -33 151 -21 81 -39 153 -40 158 -13 62
-51 212 -55 217 -9 10 -72 17 -231 23 -80 4 -179 8 -220 10 -41 3 -133 7 -205
10 -71 4 -151 8 -177 10 -27 1 -48 -1 -48 -6z"/>
</g>
</svg>
